<svg 
          width="19.49995231628418" 
          height="24.0001220703125" fill="none" 
          xmlns="http://www.w3.org/2000/svg">
          <path d="M 14.522888305299126 0.012010519381196964 C 14.471888303774627 -0.044989476520995386 12.63438861469319 0.034510551511829135 11.035388676682114 1.7700104010104578 C 9.436388738671038 3.504010359287559 9.68238832035532 5.49301029893826 9.718388319787929 5.544010299683328 C 9.754388319220537 5.595010300428396 11.998388861273051 5.674510134280472 13.430888801209825 3.6570101715329657 C 14.863388741146599 1.6395102087854596 14.573888306823626 0.07051051826362174 14.522888305299126 0.012010519381196964 L 14.522888305299126 0.012010519381196964 Z M 19.493888378291594 17.61150957697948 C 19.421888379426377 17.467509581449796 16.006388593212392 15.76050969916862 16.324388581681166 12.47850988394235 C 16.64238857014994 9.195010177494549 18.83688845151078 8.295010624529185 18.871388450734198 8.197510631979746 C 18.905888449957615 8.100010639430307 17.97588748486393 7.012510602177185 16.99038750109479 6.46201060366719 C 16.26681161382317 6.073889073774887 15.465985068974792 5.851522156350617 14.645887970412724 5.811010249019437 C 14.483887970172024 5.8065102491591345 13.921388464489409 5.668510167063024 12.764888451284758 5.98501014769158 C 12.002888445599437 6.19351013726081 10.285387890359365 6.868510640175115 9.812887905489802 6.895510637939947 C 9.338887895265342 6.9225106357047785 7.9288884250590055 6.11251002103174 6.412388406352408 5.898010019541581 C 5.441888407911357 5.710510026992123 4.412888627623303 6.094510834635105 3.6763886506399093 6.390010818243888 C 2.9413886543079313 6.684010798872438 1.5433887163885436 7.521010696054599 0.5653887252834489 9.745510667742844 C -0.41261126582164587 11.968510569395633 0.09888868537129064 15.490509609761602 0.4648886805341227 16.585509594860664 C 0.8308886756969547 17.67900950992427 1.4023886576092037 19.4715088021195 2.3743886367016707 20.779508718673267 C 3.2383885783807678 22.255508700792173 4.384388816432475 23.280008881096425 4.862888813314665 23.62800885725464 C 5.341388810196856 23.976008833412852 6.6913882943873615 24.207009426479086 7.627388290811027 23.728509436909803 C 8.380388233773923 23.266509457771335 9.7393879147973 23.001009282310118 10.276387917043904 23.020509281937592 C 10.81188789393561 23.040009281565066 11.867888667053622 23.25150862330634 12.949388664210874 23.829008586053554 C 13.805888613225928 24.124508569662336 14.61588782094262 24.001509264056395 15.427387813973413 23.67150927895749 C 16.238887807004204 23.340009290878353 17.41338767743281 22.08300878274852 18.784387605998855 19.534508882585783 C 19.304887597562473 18.349508897486704 19.541888379397715 17.70900956952892 19.493888378291594 17.61150957697948 L 19.493888378291594 17.61150957697948 Z" fill="rgb(0,0,0)"/>
        </svg>